<svg xmlns="http://www.w3.org/2000/svg" viewBox="0 0 64 64" fill="none">
  <defs>
    <linearGradient id="qBody" x1="18" y1="12" x2="48" y2="56" gradientUnits="userSpaceOnUse">
      <stop offset="0%" stop-color="#fff8ea"/>
      <stop offset="40%" stop-color="#f2d7a4"/>
      <stop offset="100%" stop-color="#b8925a"/>
    </linearGradient>
    <linearGradient id="qGold" x1="12" y1="8" x2="52" y2="42" gradientUnits="userSpaceOnUse">
      <stop offset="0%" stop-color="#ffe9a8"/>
      <stop offset="48%" stop-color="#e0c36a"/>
      <stop offset="100%" stop-color="#9a7420"/>
    </linearGradient>
    <linearGradient id="qShine" x1="22" y1="16" x2="36" y2="46" gradientUnits="userSpaceOnUse">
      <stop offset="0%" stop-color="#ffffff" stop-opacity="0.5"/>
      <stop offset="100%" stop-color="#ffffff" stop-opacity="0"/>
    </linearGradient>
    <filter id="qSoft" x="-25%" y="-25%" width="150%" height="150%">
      <feDropShadow dx="0" dy="2" stdDeviation="1.3" flood-color="#1a1008" flood-opacity="0.42"/>
    </filter>
  </defs>
  <g filter="url(#qSoft)">
    <path d="M18.5 34c6.8-1.6 20.2-1.6 27 0l3.8-14.2-7.4 10.2-.4-13.4-5.8 12.2L32 12.5l-3.7 16.3-5.8-12.2-.4 13.4-7.4-10.2L18.5 34z" fill="url(#qBody)" stroke="#4a3018" stroke-width="1.55" stroke-linejoin="round"/>
    <path d="M18.5 34c0 2.2 1.7 2.4 2.8 4.4 1.1 1.8 1.1 1.4.6 4.1-1.5 1.1-1 2.7-1 2.7-.8 1.4.8 2.4.8 2.4 7.2 1.2 15.4 1.2 22.6 0 0 0 1.6-1 .8-2.4 0 0 .5-1.6-1-2.7-.5-2.7-.5-2.3.6-4.1 1.1-2 2.8-2.2 2.8-4.4-6.8-1.6-20.2-1.6-27 0z" fill="url(#qBody)" stroke="#4a3018" stroke-width="1.55" stroke-linejoin="round"/>
    <path d="M21.5 39.2c4-.9 16.9-.9 20.9 0" stroke="#7a5530" stroke-width="1.05" stroke-linecap="round" opacity=".5"/>
    <path d="M21.2 43.8c5.2-.9 16.4-.9 21.6 0" stroke="#7a5530" stroke-width="1.05" stroke-linecap="round" opacity=".4"/>
    <path d="M20 50.8h24c1.2 0 2 .7 2 1.7v1.1c0 1.4-3.8 2.4-14 2.4s-14-1-14-2.4v-1.1c0-1 .8-1.7 2-1.7z" fill="url(#qGold)" stroke="#5a3d10" stroke-width="1.25" stroke-linejoin="round"/>
    <circle cx="14.2" cy="18.2" r="2.55" fill="url(#qGold)" stroke="#5a3d10" stroke-width="1.1"/>
    <circle cx="23.2" cy="14.4" r="2.55" fill="url(#qGold)" stroke="#5a3d10" stroke-width="1.1"/>
    <circle cx="32" cy="12.2" r="2.9" fill="url(#qGold)" stroke="#5a3d10" stroke-width="1.1"/>
    <circle cx="40.8" cy="14.4" r="2.55" fill="url(#qGold)" stroke="#5a3d10" stroke-width="1.1"/>
    <circle cx="49.8" cy="18.2" r="2.55" fill="url(#qGold)" stroke="#5a3d10" stroke-width="1.1"/>
    <path d="M24 22c2.5-8 13.5-8 16 0" stroke="url(#qShine)" stroke-width="3" stroke-linecap="round"/>
  </g>
</svg>
